<svg width="2108" height="871" viewBox="0 0 2108 871" fill="none" xmlns="http://www.w3.org/2000/svg">
<path d="M1401.09 319.917C1401.09 319.917 1420.42 275.976 1424.11 259.376C1427.8 242.785 1427.52 184.788 1427.52 184.788L1440.27 191.471C1440.27 191.471 1444.31 243.122 1444.74 259.642C1445.17 276.171 1431.63 334.239 1431.63 334.239L1401.09 319.917Z" fill="#EA6A00"/>
<path d="M1465.77 348.639C1465.77 348.639 1525.63 330.887 1584.28 218.42C1590.9 216.311 1591.8 218.42 1591.8 218.42C1591.8 218.42 1568.03 302.323 1538.56 332.704C1509.08 363.076 1505.18 366.985 1505.18 366.985L1465.77 348.639Z" fill="#EA6A00"/>
<path d="M285.76 584.759L310.323 444.88H463.513L438.968 584.759H405.541L425.273 472.656H338.919L319.187 584.759H285.76Z" fill="#EA6A00"/>
<path d="M632.002 537.062C628.784 554.77 622.943 567.151 614.486 574.197C606.03 581.243 592.211 584.761 573.029 584.761H511.636C496.062 584.761 484.751 582.182 477.722 577.015C470.675 571.848 467.138 563.562 467.138 552.164C467.138 547.334 467.617 542.3 468.548 537.062L476.197 493.192C479.548 474.146 485.593 461.092 494.316 454.046C503.038 447 517.132 443.481 536.589 443.481H597.981C613.148 443.481 624.024 445.697 630.592 450.12C637.834 455.083 641.469 463.671 641.469 475.883C641.469 480.705 640.866 486.483 639.652 493.183L632.002 537.062ZM502.577 533.65C502.036 536.602 501.735 538.348 501.664 538.879C501.602 539.411 501.566 540.625 501.566 542.504C501.566 548.008 503.286 551.801 506.716 553.875C510.147 555.958 516.086 557.003 524.56 557.003H568.934C579.686 557.003 587.025 555.452 590.917 552.368C594.817 549.284 597.636 542.974 599.382 533.446L606.03 496.223C606.704 492.191 607.04 489.044 607.04 486.758C607.04 480.855 605.259 476.796 601.695 474.581C598.132 472.374 592.113 471.257 583.648 471.257H540.489C529.87 471.257 522.433 472.976 518.204 476.389C513.967 479.81 510.98 486.492 509.234 496.418L502.577 533.65Z" fill="#EA6A00"/>
<path d="M647.097 584.759L671.651 444.88H814.381L809.745 471.246H700.441L694.999 502.044H800.89L796.661 526.39H690.771L685.133 558.402H794.436L789.809 584.768H647.097V584.759Z" fill="#EA6A00"/>
<path d="M878.992 444.88L915.627 496L969.982 444.88H1015.29L938.993 512.803L998.577 584.759H949.452L909.599 529.616L850.414 584.759H801.289L886.242 512.803L833.696 444.88H878.992Z" fill="#EA6A00"/>
<path d="M1040.03 584.759H1000.98L1099.62 444.88H1149.13L1198.06 584.759H1158.8L1147.12 549.539H1064.39L1040.03 584.759ZM1082.51 523.173H1138.27L1120.75 471.042H1119.14L1082.51 523.173Z" fill="#EA6A00"/>
<path d="M1391.11 444.88L1366.54 584.759H1333.13L1352.86 472.656H1274.36L1263.49 533.95C1260.41 551.56 1254.79 564.428 1246.68 572.556C1238.56 580.691 1228 584.759 1214.98 584.759H1200.88L1205.71 556.975C1214.03 556.975 1219.83 555.14 1223.12 551.427C1226.41 547.74 1229 540.641 1230.87 530.165L1245.77 444.88H1391.11Z" fill="#EA6A00"/>
<path d="M1569.25 584.759H1535.84L1555.57 472.656H1550.94L1447.27 584.759H1389.9L1414.45 444.88H1447.87L1428.14 556.975H1432.78L1537.65 444.88H1593.81L1569.25 584.759Z" fill="#EA6A00"/>
<path d="M901.09 715.698H934.711C931.361 734.62 925.75 747.4 917.905 754.038C910.051 760.685 895.993 764 875.729 764H813.53C797.557 764 786.22 761.686 779.509 757.051C772.799 752.425 769.449 744.342 769.449 732.803C769.449 727.574 770.043 721.53 771.257 714.688L778.304 675.045C781.921 654.785 788.205 641.003 797.122 633.692C806.049 626.371 820.905 622.72 841.709 622.72H897.269C912.569 622.72 923.844 625.006 931.086 629.562C939.542 634.932 943.77 643.981 943.77 656.726C943.77 661.432 943.292 666.324 942.361 671.42H908.943L909.351 666.191C909.351 660.687 907.507 656.699 903.82 654.218C900.132 651.727 894.14 650.486 885.835 650.486H843.039C831.781 650.486 824.185 652.064 820.231 655.219C816.278 658.374 813.37 665.376 811.5 676.25L805.472 710.868C804.799 714.626 804.462 717.01 804.462 718.011C804.462 719.013 804.462 719.855 804.462 720.537C804.462 726.705 806.235 730.862 809.798 733.007C813.344 735.16 819.354 736.233 827.81 736.233H870.686C881.012 736.233 888.325 734.895 892.624 732.2C896.932 729.515 899.751 724.011 901.09 715.698Z" fill="#EA6A00"/>
<path d="M1056.09 624.12L1046.63 677.855H1132.98L1142.44 624.12H1175.86L1151.31 764H1117.89L1128.15 705.63H1041.8L1031.53 764H998.116L1022.68 624.12H1056.09Z" fill="#EA6A00"/>
<path d="M1192.98 764H1153.93L1252.57 624.12H1302.08L1351 764H1311.75L1300.06 728.779H1217.33L1192.98 764ZM1235.44 702.413H1291.2L1273.69 650.283H1272.07L1235.44 702.413Z" fill="#EA6A00"/>
<path d="M1599 624.12L1574.43 764H1541.03L1560.76 651.896H1556.32L1488.69 764H1441.18L1413 651.896H1408.57L1387.23 764H1355.43L1379.98 624.12H1442.19L1468.76 736.224H1470.77L1536.8 624.12H1599Z" fill="#EA6A00"/>
<path d="M1769.69 764H1736.28L1756.02 651.896H1751.38L1647.71 764H1590.35L1614.89 624.12H1648.32L1628.59 736.224H1633.21L1738.09 624.12H1794.26L1769.69 764Z" fill="#EA6A00"/>
<path d="M1791.03 763.999L1796.86 730.595H1830.28L1824.44 763.999H1791.03ZM1799.89 713.677L1815.59 624.11H1849L1833.3 713.677H1799.89Z" fill="#EA6A00"/>
<path d="M633.721 624.005C633.721 624.599 633.624 625.414 633.411 626.425C633.207 627.444 632.95 628.25 632.64 628.871C632.33 629.482 631.984 629.784 631.594 629.784C631.31 629.784 630.982 629.606 630.584 629.252C630.202 628.897 629.688 628.516 629.068 628.1C628.447 627.692 627.65 627.311 626.674 626.956C625.708 626.602 624.494 626.425 623.058 626.425C621.454 626.425 620 626.744 618.688 627.382C617.376 628.02 616.197 628.862 615.16 629.908C614.123 630.945 613.219 632.15 612.439 633.515C611.659 634.871 611.02 636.28 610.515 637.751C610.019 639.213 609.629 640.676 609.381 642.12C609.141 643.583 609.008 644.93 609.008 646.171C609.008 647.677 609.194 649.016 609.576 650.141C609.948 651.284 610.489 652.233 611.207 652.995C611.916 653.739 612.793 654.315 613.83 654.688C614.867 655.069 616.029 655.246 617.314 655.246C618.847 655.246 620.159 655.095 621.241 654.767C622.322 654.439 623.262 654.085 624.024 653.704C624.778 653.305 625.416 652.951 625.921 652.64C626.426 652.312 626.887 652.153 627.295 652.153C627.57 652.153 627.765 652.259 627.853 652.463C627.942 652.658 628.004 652.951 628.004 653.314C628.004 653.465 627.986 653.704 627.933 653.996C627.898 654.298 627.836 654.634 627.774 655.016C627.703 655.388 627.641 655.804 627.552 656.247C627.463 656.691 627.366 657.089 627.26 657.479C627.153 657.852 627.038 658.197 626.887 658.507C626.754 658.827 626.559 659.101 626.329 659.341C626.089 659.571 625.629 659.881 624.937 660.253C624.246 660.626 623.412 660.98 622.411 661.308C621.418 661.636 620.301 661.911 619.051 662.123C617.802 662.354 616.472 662.469 615.045 662.469C612.696 662.469 610.577 662.159 608.68 661.538C606.801 660.918 605.197 659.961 603.885 658.685C602.573 657.417 601.562 655.822 600.853 653.908C600.135 651.985 599.781 649.751 599.781 647.19C599.781 645.187 599.994 643.095 600.392 640.933C600.809 638.761 601.421 636.643 602.263 634.578C603.087 632.504 604.133 630.546 605.409 628.693C606.686 626.841 608.184 625.21 609.912 623.828C611.65 622.436 613.627 621.329 615.834 620.513C618.041 619.698 620.496 619.281 623.182 619.281C624.689 619.281 626.116 619.441 627.472 619.751C628.82 620.07 629.99 620.487 630.991 620.992C631.993 621.515 632.693 621.984 633.092 622.401C633.518 622.826 633.721 623.358 633.721 624.005Z" fill="#EA6A00"/>
<path d="M665.171 621.195C665.171 621.319 665.153 621.549 665.118 621.868C665.091 622.196 665.038 622.551 664.976 622.958C664.905 623.357 664.826 623.774 664.719 624.199C664.604 624.634 664.471 625.023 664.311 625.378C664.152 625.732 663.957 626.034 663.726 626.264C663.505 626.504 663.257 626.619 663 626.619H648.072L645.998 636.837H658.665C658.966 636.837 659.188 636.953 659.312 637.165C659.445 637.378 659.516 637.679 659.516 638.069C659.516 638.22 659.489 638.459 659.463 638.761C659.436 639.08 659.383 639.434 659.312 639.824C659.25 640.232 659.17 640.631 659.055 641.038C658.949 641.455 658.816 641.827 658.656 642.173C658.497 642.518 658.302 642.793 658.089 643.006C657.876 643.227 657.637 643.334 657.38 643.334H644.748L642.355 655.13H657.477C657.734 655.13 657.938 655.236 658.062 655.467C658.195 655.688 658.257 656.016 658.257 656.451C658.257 656.601 658.248 656.832 658.222 657.16C658.204 657.487 658.151 657.842 658.071 658.241C657.991 658.648 657.903 659.056 657.796 659.455C657.69 659.863 657.548 660.244 657.389 660.598C657.238 660.953 657.034 661.236 656.83 661.458C656.617 661.671 656.369 661.786 656.086 661.786H635.069C634.723 661.786 634.413 661.733 634.129 661.635C633.854 661.538 633.624 661.378 633.447 661.148C633.252 660.926 633.136 660.651 633.065 660.315C633.003 659.978 633.012 659.57 633.101 659.1L640.405 622.639C640.6 621.691 640.981 621.009 641.566 620.592C642.142 620.167 642.798 619.963 643.507 619.963H664.32C664.896 619.963 665.171 620.371 665.171 621.195Z" fill="#EA6A00"/>
<path d="M700.433 621.319C700.433 621.469 700.415 621.718 700.388 622.045C700.353 622.382 700.3 622.754 700.229 623.162C700.149 623.579 700.052 624.004 699.945 624.447C699.821 624.89 699.688 625.289 699.52 625.653C699.36 626.016 699.165 626.326 698.935 626.565C698.713 626.796 698.465 626.92 698.208 626.92H687.704L680.976 660.616C680.905 660.837 680.79 661.032 680.621 661.201C680.444 661.378 680.187 661.52 679.833 661.626C679.478 661.733 679.026 661.821 678.476 661.883C677.927 661.936 677.235 661.981 676.384 661.981C675.569 661.981 674.886 661.945 674.346 661.883C673.805 661.812 673.388 661.733 673.105 661.626C672.803 661.52 672.617 661.378 672.52 661.201C672.422 661.032 672.396 660.837 672.44 660.616L679.168 626.92H668.752C668.433 626.92 668.212 626.796 668.096 626.565C667.981 626.326 667.919 625.998 667.919 625.599C667.919 625.422 667.937 625.174 667.972 624.837C667.999 624.5 668.043 624.128 668.123 623.703C668.203 623.277 668.3 622.861 668.424 622.409C668.54 621.966 668.69 621.567 668.859 621.204C669.036 620.84 669.222 620.539 669.435 620.317C669.657 620.087 669.887 619.98 670.144 619.98H699.626C699.883 619.98 700.087 620.096 700.229 620.335C700.362 620.557 700.433 620.893 700.433 621.319Z" fill="#EA6A00"/>
<path d="M731.103 645.718C731.103 646.56 731.023 647.464 730.864 648.439C730.704 649.405 730.429 650.398 730.048 651.417C729.676 652.427 729.171 653.438 728.559 654.421C727.956 655.414 727.194 656.336 726.29 657.204C725.377 658.064 724.304 658.826 723.072 659.473C721.831 660.138 720.431 660.643 718.853 660.98C717.736 661.263 716.521 661.467 715.21 661.591C713.898 661.724 712.426 661.795 710.813 661.795H700.052C699.706 661.795 699.378 661.742 699.086 661.645C698.784 661.547 698.536 661.388 698.341 661.166C698.146 660.936 698.022 660.661 697.942 660.324C697.863 659.987 697.871 659.588 697.951 659.11L705.583 621.071C705.601 620.859 705.698 620.672 705.885 620.513C706.071 620.353 706.337 620.22 706.691 620.105C707.046 619.999 707.498 619.919 708.056 619.866C708.606 619.813 709.288 619.786 710.104 619.786C710.919 619.786 711.593 619.813 712.125 619.866C712.657 619.919 713.073 619.999 713.366 620.105C713.658 620.22 713.871 620.353 713.977 620.513C714.084 620.672 714.11 620.859 714.075 621.071L711.194 635.296H716.3C717.142 635.296 717.895 635.305 718.569 635.331C719.243 635.349 719.854 635.393 720.413 635.438C720.971 635.5 721.485 635.562 721.946 635.641C722.416 635.721 722.859 635.819 723.294 635.943C724.668 636.306 725.855 636.829 726.848 637.511C727.841 638.194 728.648 638.956 729.295 639.816C729.924 640.684 730.394 641.624 730.686 642.643C730.961 643.662 731.103 644.681 731.103 645.718ZM722.248 646.826C722.248 645.958 722.035 645.142 721.636 644.353C721.228 643.565 720.537 642.962 719.562 642.528C719.331 642.421 719.065 642.333 718.764 642.253C718.48 642.173 718.144 642.111 717.762 642.058C717.39 642.005 716.947 641.969 716.451 641.943C715.954 641.925 715.387 641.907 714.74 641.907H709.882L707.205 655.193H712.249C712.923 655.193 713.508 655.184 714.013 655.139C714.518 655.113 714.979 655.06 715.387 654.989C715.786 654.935 716.167 654.847 716.504 654.749C716.832 654.652 717.169 654.537 717.514 654.413C718.206 654.138 718.835 653.739 719.42 653.252C719.996 652.755 720.501 652.17 720.927 651.515C721.352 650.85 721.663 650.123 721.893 649.317C722.141 648.519 722.248 647.677 722.248 646.826Z" fill="#EA6A00"/>
<path d="M291.522 670.791C291.522 670.942 291.496 671.181 291.469 671.518C291.443 671.855 291.381 672.227 291.31 672.635C291.23 673.043 291.132 673.468 291.026 673.911C290.911 674.354 290.769 674.762 290.601 675.125C290.441 675.489 290.246 675.799 290.024 676.029C289.794 676.269 289.546 676.384 289.289 676.384H278.776L272.057 710.088C271.986 710.31 271.862 710.505 271.702 710.673C271.525 710.851 271.268 710.984 270.913 711.09C270.559 711.205 270.098 711.294 269.548 711.347C268.999 711.409 268.307 711.453 267.456 711.453C266.641 711.453 265.958 711.418 265.418 711.347C264.877 711.285 264.46 711.205 264.177 711.09C263.884 710.984 263.698 710.851 263.6 710.673C263.494 710.505 263.468 710.31 263.521 710.088L270.24 676.384H259.842C259.514 676.384 259.301 676.269 259.177 676.029C259.062 675.799 259 675.471 259 675.063C259 674.886 259.027 674.647 259.053 674.31C259.08 673.973 259.133 673.601 259.213 673.175C259.293 672.75 259.39 672.325 259.505 671.881C259.62 671.438 259.771 671.04 259.94 670.667C260.117 670.304 260.303 670.011 260.525 669.781C260.737 669.559 260.977 669.453 261.234 669.453H290.707C290.964 669.453 291.177 669.568 291.31 669.808C291.452 670.029 291.522 670.366 291.522 670.791Z" fill="#EA6A00"/>
<path d="M312.264 699.001C310.704 701.651 309.312 703.823 308.045 705.498C306.786 707.182 305.554 708.484 304.34 709.415C303.134 710.354 301.875 710.993 300.564 711.338C299.252 711.684 297.762 711.861 296.105 711.861C295.644 711.861 295.156 711.834 294.633 711.764C294.102 711.693 293.596 711.604 293.118 711.48C292.63 711.347 292.178 711.196 291.753 711.028C291.345 710.86 291.008 710.638 290.769 710.381C290.441 710.062 290.29 709.637 290.29 709.096C290.29 708.919 290.308 708.644 290.334 708.263C290.379 707.891 290.423 707.474 290.494 707.031C290.574 706.588 290.662 706.127 290.769 705.648C290.875 705.161 291.017 704.718 291.194 704.328C291.363 703.929 291.549 703.592 291.753 703.335C291.965 703.087 292.187 702.954 292.453 702.954C292.674 702.954 292.887 703.034 293.091 703.184C293.313 703.326 293.561 703.495 293.845 703.663C294.119 703.84 294.465 703.991 294.855 704.133C295.254 704.275 295.759 704.346 296.353 704.346C296.787 704.346 297.222 704.275 297.665 704.151C298.108 704.018 298.551 703.778 299.012 703.45C299.464 703.114 299.916 702.688 300.369 702.156C300.821 701.625 301.299 700.96 301.787 700.162L293.65 672.537C293.446 671.846 293.348 671.279 293.322 670.845C293.304 670.419 293.419 670.091 293.676 669.843C293.933 669.604 294.368 669.435 294.97 669.365C295.573 669.276 296.389 669.232 297.426 669.232C298.436 669.232 299.225 669.258 299.801 669.311C300.369 669.373 300.812 669.462 301.122 669.604C301.432 669.746 301.654 669.949 301.778 670.242C301.902 670.517 302.026 670.871 302.132 671.305L305.687 684.103C306.077 685.459 306.432 686.797 306.76 688.118C307.079 689.421 307.389 690.741 307.69 692.053H307.761C308.524 690.564 309.268 689.128 310.004 687.737C310.748 686.354 311.546 684.945 312.379 683.518L319.719 670.658C319.861 670.384 320.073 670.136 320.322 669.949C320.561 669.754 320.889 669.604 321.306 669.497C321.713 669.391 322.245 669.311 322.901 669.276C323.557 669.232 324.373 669.214 325.348 669.214C326.332 669.214 327.112 669.232 327.67 669.294C328.228 669.347 328.618 669.48 328.831 669.675C329.053 669.887 329.097 670.171 328.991 670.552C328.884 670.942 328.645 671.43 328.282 672.059L312.264 699.001Z" fill="#EA6A00"/>
<path d="M360.397 679.68C360.397 680.894 360.255 682.144 359.989 683.464C359.723 684.776 359.289 686.061 358.677 687.328C358.074 688.587 357.294 689.774 356.328 690.909C355.38 692.043 354.201 693.054 352.8 693.913C351.417 694.791 349.804 695.482 347.978 695.987C346.143 696.492 343.989 696.749 341.507 696.749H337.146L334.46 710.132C334.425 710.345 334.31 710.54 334.132 710.708C333.955 710.885 333.689 711.027 333.326 711.133C332.962 711.24 332.501 711.32 331.934 711.382C331.375 711.426 330.684 711.461 329.869 711.461C329.071 711.461 328.406 711.426 327.874 711.382C327.342 711.32 326.935 711.24 326.633 711.133C326.332 711.027 326.137 710.885 326.022 710.726C325.915 710.575 325.897 710.371 325.96 710.132L333.485 672.474C333.68 671.455 334.097 670.702 334.744 670.197C335.391 669.692 336.189 669.435 337.146 669.435H346.285C347.411 669.435 348.403 669.479 349.299 669.559C350.185 669.638 351.045 669.754 351.914 669.931C353.226 670.188 354.413 670.596 355.45 671.127C356.496 671.668 357.383 672.333 358.127 673.148C358.854 673.955 359.413 674.894 359.812 675.993C360.202 677.065 360.397 678.297 360.397 679.68ZM351.444 680.655C351.444 679.618 351.196 678.723 350.708 677.969C350.212 677.216 349.441 676.693 348.403 676.383C347.951 676.241 347.455 676.126 346.888 676.082C346.329 676.02 345.709 676.002 345.017 676.002H341.268L338.493 690.191H342.367C343.599 690.191 344.645 690.04 345.523 689.757C346.382 689.473 347.154 689.092 347.818 688.613C348.474 688.144 349.042 687.585 349.503 686.929C349.964 686.283 350.336 685.609 350.637 684.891C350.93 684.182 351.134 683.464 351.267 682.746C351.373 682.011 351.444 681.311 351.444 680.655Z" fill="#EA6A00"/>
<path d="M395.241 710.159C395.197 710.372 395.091 710.558 394.913 710.717C394.736 710.877 394.488 711.019 394.133 711.125C393.779 711.232 393.309 711.311 392.759 711.373C392.201 711.418 391.51 711.453 390.685 711.453C389.852 711.453 389.169 711.418 388.638 711.373C388.106 711.311 387.707 711.232 387.406 711.125C387.122 711.019 386.927 710.877 386.829 710.717C386.723 710.558 386.696 710.372 386.75 710.159L390.331 692.186C390.446 691.539 390.57 690.865 390.73 690.147C390.88 689.438 391.049 688.703 391.208 687.967C391.386 687.223 391.563 686.478 391.74 685.742C391.917 684.998 392.112 684.298 392.307 683.651H392.263C391.297 684.945 390.286 686.239 389.232 687.559C388.177 688.88 387.14 690.121 386.129 691.317L369.509 710.186C369.296 710.443 369.066 710.664 368.826 710.815C368.596 710.974 368.303 711.107 367.975 711.205C367.639 711.302 367.24 711.364 366.779 711.4C366.318 711.435 365.733 711.453 365.05 711.453C364.217 711.453 363.534 711.426 363.011 711.382C362.489 711.338 362.098 711.258 361.806 711.152C361.513 711.045 361.318 710.895 361.239 710.717C361.15 710.531 361.141 710.31 361.212 710.026L369.137 670.543C369.154 670.33 369.252 670.135 369.438 669.985C369.624 669.825 369.89 669.683 370.245 669.577C370.599 669.471 371.06 669.391 371.61 669.329C372.159 669.284 372.842 669.249 373.657 669.249C374.473 669.249 375.146 669.284 375.678 669.329C376.21 669.391 376.627 669.471 376.919 669.577C377.221 669.683 377.425 669.825 377.531 669.985C377.637 670.135 377.673 670.33 377.628 670.543L373.746 690.067C373.64 690.59 373.524 691.158 373.374 691.778C373.232 692.398 373.09 693.028 372.939 693.675C372.789 694.304 372.629 694.942 372.469 695.571C372.31 696.2 372.142 696.794 371.964 697.335H372.035C372.416 696.776 372.842 696.192 373.303 695.571C373.764 694.96 374.251 694.339 374.739 693.719C375.235 693.098 375.74 692.487 376.228 691.911C376.724 691.326 377.185 690.776 377.62 690.262L394.648 670.711C394.905 670.437 395.162 670.188 395.41 670.002C395.658 669.807 395.951 669.657 396.296 669.55C396.642 669.435 397.05 669.364 397.511 669.32C397.972 669.276 398.539 669.249 399.204 669.249C400.046 669.249 400.737 669.284 401.251 669.329C401.783 669.391 402.191 669.471 402.475 669.577C402.776 669.683 402.962 669.825 403.06 669.985C403.157 670.135 403.184 670.33 403.139 670.543L395.241 710.159Z" fill="#EA6A00"/>
<path d="M439.588 673.477C439.588 674.079 439.482 674.886 439.278 675.905C439.074 676.915 438.817 677.731 438.507 678.351C438.197 678.963 437.851 679.264 437.452 679.264C437.177 679.264 436.849 679.087 436.45 678.732C436.069 678.378 435.555 677.997 434.935 677.58C434.314 677.172 433.516 676.791 432.541 676.437C431.575 676.082 430.361 675.905 428.925 675.905C427.32 675.905 425.867 676.215 424.555 676.862C423.243 677.5 422.064 678.342 421.027 679.379C419.99 680.425 419.086 681.63 418.306 682.986C417.526 684.351 416.887 685.76 416.382 687.223C415.877 688.694 415.496 690.156 415.248 691.601C415.008 693.063 414.875 694.41 414.875 695.651C414.875 697.158 415.061 698.487 415.434 699.622C415.815 700.765 416.356 701.713 417.074 702.475C417.783 703.22 418.66 703.796 419.697 704.168C420.734 704.549 421.896 704.726 423.181 704.726C424.714 704.726 426.026 704.567 427.108 704.248C428.189 703.92 429.129 703.565 429.891 703.184C430.645 702.786 431.283 702.431 431.788 702.121C432.293 701.793 432.754 701.633 433.162 701.633C433.437 701.633 433.632 701.74 433.72 701.944C433.818 702.147 433.871 702.431 433.871 702.794C433.871 702.945 433.844 703.184 433.8 703.477C433.756 703.769 433.703 704.115 433.641 704.496C433.57 704.868 433.508 705.276 433.419 705.728C433.33 706.171 433.224 706.57 433.126 706.951C433.02 707.332 432.905 707.678 432.754 707.988C432.621 708.307 432.426 708.582 432.196 708.821C431.956 709.051 431.495 709.362 430.804 709.734C430.113 710.106 429.279 710.461 428.278 710.789C427.285 711.116 426.168 711.391 424.918 711.604C423.668 711.834 422.339 711.95 420.912 711.95C418.563 711.95 416.444 711.639 414.547 711.019C412.668 710.399 411.064 709.441 409.752 708.165C408.44 706.898 407.421 705.303 406.711 703.388C406.002 701.465 405.648 699.232 405.648 696.67C405.648 694.667 405.86 692.576 406.259 690.413C406.676 688.242 407.288 686.124 408.121 684.05C408.954 681.985 410 680.026 411.276 678.174C412.553 676.322 414.051 674.691 415.779 673.299C417.517 671.917 419.485 670.809 421.701 669.994C423.908 669.169 426.354 668.762 429.049 668.762C430.556 668.762 431.983 668.921 433.339 669.231C434.687 669.55 435.857 669.958 436.858 670.472C437.86 670.995 438.56 671.456 438.95 671.881C439.385 672.298 439.588 672.83 439.588 673.477Z" fill="#EA6A00"/>
<path d="M474.238 670.791C474.238 670.942 474.22 671.181 474.185 671.518C474.158 671.855 474.096 672.227 474.034 672.635C473.955 673.043 473.857 673.468 473.742 673.911C473.627 674.354 473.494 674.762 473.325 675.125C473.166 675.489 472.971 675.799 472.74 676.029C472.51 676.269 472.27 676.384 472.013 676.384H461.5L454.781 710.088C454.711 710.31 454.595 710.505 454.427 710.673C454.25 710.851 453.993 710.984 453.638 711.09C453.283 711.205 452.831 711.294 452.282 711.347C451.723 711.409 451.041 711.453 450.19 711.453C449.374 711.453 448.692 711.418 448.151 711.347C447.61 711.285 447.194 711.205 446.91 711.09C446.609 710.984 446.423 710.851 446.325 710.673C446.228 710.505 446.201 710.31 446.245 710.088L452.973 676.384H442.558C442.239 676.384 442.017 676.269 441.902 676.029C441.787 675.799 441.725 675.471 441.725 675.063C441.725 674.886 441.742 674.647 441.769 674.31C441.804 673.973 441.849 673.601 441.928 673.175C442.008 672.75 442.106 672.325 442.23 671.881C442.345 671.438 442.496 671.04 442.664 670.667C442.841 670.304 443.028 670.011 443.24 669.781C443.462 669.559 443.692 669.453 443.95 669.453H473.432C473.689 669.453 473.892 669.568 474.034 669.808C474.167 670.029 474.238 670.366 474.238 670.791Z" fill="#EA6A00"/>
<path d="M505.493 710.159C505.44 710.372 505.343 710.558 505.165 710.717C504.988 710.877 504.731 711.019 504.376 711.125C504.022 711.232 503.561 711.311 503.011 711.373C502.444 711.418 501.753 711.453 500.937 711.453C500.104 711.453 499.421 711.418 498.889 711.373C498.358 711.311 497.95 711.232 497.657 711.125C497.374 711.019 497.17 710.877 497.072 710.717C496.975 710.558 496.948 710.372 496.993 710.159L500.583 692.186C500.689 691.539 500.822 690.865 500.981 690.147C501.123 689.438 501.292 688.703 501.46 687.967C501.637 687.223 501.815 686.478 501.992 685.742C502.169 684.998 502.355 684.298 502.559 683.651H502.515C501.549 684.945 500.538 686.239 499.483 687.559C498.429 688.871 497.391 690.121 496.372 691.317L479.761 710.186C479.539 710.443 479.318 710.664 479.078 710.815C478.839 710.974 478.555 711.107 478.218 711.205C477.882 711.302 477.492 711.364 477.031 711.4C476.561 711.435 475.985 711.453 475.302 711.453C474.469 711.453 473.786 711.426 473.263 711.382C472.74 711.338 472.35 711.258 472.049 711.152C471.765 711.045 471.57 710.895 471.491 710.717C471.402 710.531 471.393 710.31 471.455 710.026L479.38 670.543C479.406 670.33 479.504 670.135 479.69 669.985C479.876 669.825 480.142 669.683 480.496 669.577C480.851 669.471 481.303 669.391 481.862 669.329C482.411 669.284 483.094 669.249 483.909 669.249C484.725 669.249 485.398 669.284 485.93 669.329C486.462 669.391 486.879 669.471 487.171 669.577C487.464 669.683 487.676 669.825 487.783 669.985C487.889 670.135 487.916 670.33 487.88 670.543L483.998 690.067C483.891 690.59 483.767 691.158 483.625 691.778C483.484 692.398 483.333 693.028 483.191 693.675C483.04 694.304 482.881 694.942 482.712 695.571C482.553 696.2 482.393 696.794 482.216 697.335H482.278C482.668 696.776 483.094 696.192 483.555 695.571C484.015 694.96 484.503 694.339 484.991 693.719C485.487 693.098 485.974 692.487 486.48 691.911C486.976 691.326 487.437 690.776 487.871 690.262L504.899 670.711C505.156 670.437 505.413 670.188 505.662 670.002C505.91 669.807 506.202 669.657 506.548 669.55C506.894 669.435 507.293 669.364 507.762 669.32C508.223 669.276 508.782 669.249 509.455 669.249C510.289 669.249 510.98 669.284 511.503 669.329C512.035 669.391 512.443 669.471 512.726 669.577C513.019 669.683 513.214 669.825 513.311 669.985C513.409 670.135 513.435 670.33 513.391 670.543L505.493 710.159Z" fill="#EA6A00"/>
<path d="M543.184 710.115C543.113 710.336 543.006 710.523 542.847 710.682C542.687 710.842 542.43 710.975 542.093 711.081C541.765 711.196 541.331 711.285 540.773 711.338C540.223 711.409 539.558 711.435 538.76 711.435C537.936 711.435 537.262 711.409 536.713 711.338C536.172 711.276 535.747 711.196 535.427 711.081C535.099 710.975 534.887 710.842 534.78 710.682C534.674 710.523 534.647 710.336 534.683 710.115L537.564 695.837C536.598 695.952 535.569 696.041 534.506 696.112C533.433 696.192 532.405 696.236 531.421 696.236C529.205 696.236 527.237 696.059 525.509 695.704C523.789 695.35 522.335 694.782 521.165 694.003C519.986 693.231 519.1 692.212 518.488 690.954C517.885 689.686 517.584 688.153 517.584 686.354C517.584 685.769 517.628 685.122 517.717 684.404C517.806 683.695 517.939 682.862 518.134 681.887L520.465 670.57C520.509 670.357 520.598 670.171 520.757 670.011C520.908 669.852 521.156 669.719 521.484 669.604C521.821 669.497 522.255 669.409 522.796 669.355C523.346 669.285 524.002 669.249 524.799 669.249C525.615 669.249 526.297 669.285 526.838 669.355C527.379 669.417 527.804 669.497 528.132 669.604C528.46 669.719 528.682 669.852 528.815 670.011C528.939 670.171 528.983 670.366 528.939 670.57L526.741 681.657C526.634 682.109 526.554 682.614 526.492 683.181C526.439 683.74 526.413 684.289 526.413 684.821C526.413 685.583 526.537 686.23 526.758 686.797C526.989 687.356 527.352 687.825 527.857 688.206C528.354 688.579 529.01 688.862 529.799 689.039C530.588 689.226 531.536 689.314 532.653 689.314C533.69 689.314 534.727 689.288 535.782 689.217C536.828 689.146 537.865 689.057 538.902 688.924L542.616 670.561C542.661 670.348 542.767 670.162 542.944 670.002C543.121 669.843 543.387 669.71 543.751 669.595C544.114 669.488 544.593 669.4 545.16 669.338C545.736 669.276 546.41 669.24 547.217 669.24C548.032 669.24 548.697 669.276 549.211 669.338C549.725 669.409 550.133 669.488 550.426 669.595C550.718 669.71 550.913 669.843 551.011 670.002C551.108 670.162 551.135 670.357 551.09 670.561L543.184 710.115Z" fill="#EA6A00"/>
<path d="M584.65 670.659C584.65 670.792 584.623 671.013 584.597 671.341C584.57 671.669 584.517 672.024 584.446 672.422C584.384 672.83 584.304 673.247 584.189 673.663C584.083 674.097 583.95 674.496 583.79 674.851C583.631 675.205 583.436 675.498 583.205 675.737C582.984 675.976 582.735 676.091 582.478 676.091H567.56L565.486 686.31H578.153C578.454 686.31 578.676 686.417 578.8 686.638C578.933 686.851 578.995 687.152 578.995 687.542C578.995 687.693 578.977 687.923 578.95 688.233C578.924 688.544 578.871 688.898 578.8 689.297C578.729 689.705 578.658 690.103 578.543 690.511C578.436 690.919 578.294 691.3 578.144 691.645C577.984 691.991 577.789 692.266 577.576 692.479C577.364 692.7 577.124 692.806 576.867 692.806H564.236L561.843 704.603H576.965C577.222 704.603 577.426 704.709 577.55 704.939C577.674 705.161 577.745 705.489 577.745 705.923C577.745 706.065 577.736 706.304 577.709 706.632C577.692 706.951 577.638 707.315 577.559 707.714C577.479 708.121 577.39 708.52 577.284 708.928C577.178 709.327 577.036 709.716 576.876 710.071C576.725 710.425 576.522 710.709 576.318 710.931C576.105 711.143 575.857 711.25 575.564 711.25H554.556C554.211 711.25 553.892 711.205 553.617 711.108C553.342 711.002 553.103 710.851 552.925 710.62C552.739 710.399 552.624 710.115 552.553 709.787C552.482 709.451 552.5 709.043 552.588 708.573L559.884 672.112C560.088 671.164 560.469 670.473 561.054 670.065C561.63 669.639 562.286 669.427 562.995 669.427H583.808C584.366 669.436 584.65 669.843 584.65 670.659Z" fill="#EA6A00"/>
<path d="M618.298 673.477C618.298 674.079 618.191 674.886 617.988 675.905C617.784 676.915 617.527 677.731 617.216 678.351C616.906 678.963 616.561 679.264 616.162 679.264C615.887 679.264 615.55 679.087 615.16 678.732C614.779 678.378 614.265 677.997 613.644 677.58C613.024 677.172 612.226 676.791 611.251 676.437C610.285 676.082 609.07 675.905 607.625 675.905C606.03 675.905 604.576 676.215 603.264 676.862C601.952 677.5 600.774 678.342 599.736 679.379C598.699 680.425 597.795 681.63 597.015 682.986C596.235 684.351 595.597 685.76 595.092 687.223C594.586 688.694 594.205 690.156 593.957 691.601C593.709 693.063 593.585 694.41 593.585 695.651C593.585 697.158 593.771 698.487 594.143 699.622C594.524 700.765 595.065 701.713 595.783 702.475C596.492 703.22 597.37 703.796 598.407 704.168C599.444 704.549 600.605 704.726 601.89 704.726C603.424 704.726 604.736 704.567 605.817 704.248C606.899 703.92 607.838 703.565 608.592 703.184C609.354 702.786 609.992 702.431 610.497 702.121C611.003 701.793 611.464 701.633 611.871 701.633C612.146 701.633 612.341 701.74 612.43 701.944C612.518 702.139 612.581 702.431 612.581 702.794C612.581 702.945 612.554 703.184 612.51 703.477C612.465 703.769 612.412 704.115 612.35 704.496C612.279 704.868 612.217 705.276 612.128 705.728C612.04 706.171 611.933 706.57 611.836 706.951C611.73 707.332 611.614 707.678 611.464 707.988C611.322 708.307 611.136 708.582 610.905 708.821C610.666 709.051 610.205 709.362 609.514 709.734C608.822 710.106 607.989 710.461 606.987 710.789C605.994 711.116 604.878 711.391 603.628 711.604C602.378 711.834 601.048 711.95 599.621 711.95C597.272 711.95 595.154 711.639 593.257 711.019C591.378 710.399 589.773 709.441 588.461 708.165C587.149 706.898 586.13 705.303 585.421 703.388C584.712 701.465 584.357 699.232 584.357 696.67C584.357 694.667 584.57 692.576 584.969 690.413C585.385 688.242 585.997 686.124 586.83 684.05C587.663 681.985 588.709 680.026 589.986 678.174C591.262 676.322 592.76 674.691 594.489 673.299C596.226 671.917 598.194 670.809 600.401 669.994C602.617 669.169 605.064 668.762 607.758 668.762C609.265 668.762 610.692 668.921 612.049 669.231C613.396 669.55 614.566 669.958 615.568 670.472C616.569 670.995 617.27 671.456 617.66 671.881C618.094 672.298 618.298 672.83 618.298 673.477Z" fill="#EA6A00"/>
<path d="M648.223 709.636C648.223 710 648.161 710.292 648.019 710.523C647.878 710.753 647.638 710.939 647.293 711.072C646.947 711.214 646.486 711.311 645.901 711.373C645.316 711.418 644.589 711.453 643.703 711.453C642.781 711.453 642.045 711.418 641.513 711.373C640.981 711.311 640.582 711.223 640.29 711.09C639.997 710.966 639.811 710.806 639.714 710.611C639.616 710.416 639.545 710.168 639.501 709.858L637.914 700.561C637.684 699.196 637.383 698.071 637.037 697.149C636.691 696.236 636.248 695.491 635.698 694.924C635.149 694.348 634.502 693.949 633.757 693.71C633.013 693.471 632.135 693.356 631.116 693.356H629.245L625.886 710.097C625.841 710.336 625.735 710.531 625.558 710.7C625.381 710.859 625.123 711.001 624.76 711.125C624.397 711.24 623.953 711.329 623.404 711.382C622.845 711.427 622.172 711.462 621.347 711.462C620.514 711.462 619.823 711.427 619.3 711.382C618.768 711.32 618.351 711.24 618.059 711.125C617.749 711.001 617.553 710.868 617.447 710.7C617.341 710.54 617.323 710.345 617.376 710.097L625.301 670.57C625.318 670.339 625.416 670.135 625.611 669.976C625.797 669.816 626.063 669.675 626.418 669.568C626.772 669.462 627.224 669.382 627.774 669.32C628.323 669.276 629.015 669.24 629.866 669.24C630.681 669.24 631.355 669.276 631.887 669.32C632.41 669.382 632.835 669.462 633.128 669.568C633.42 669.675 633.633 669.816 633.73 669.976C633.828 670.127 633.855 670.33 633.81 670.57L630.646 686.283H632.516C633.465 686.283 634.324 686.15 635.087 685.893C635.849 685.636 636.576 685.228 637.267 684.661C637.959 684.103 638.623 683.376 639.288 682.49C639.944 681.586 640.627 680.487 641.336 679.175L645.83 670.836C646.007 670.534 646.193 670.286 646.415 670.082C646.628 669.869 646.929 669.719 647.301 669.595C647.674 669.48 648.161 669.391 648.737 669.338C649.322 669.293 650.076 669.258 650.998 669.258C651.831 669.258 652.522 669.293 653.045 669.338C653.577 669.4 653.985 669.48 654.26 669.586C654.535 669.692 654.721 669.816 654.809 669.949C654.898 670.091 654.942 670.242 654.942 670.384C654.942 670.711 654.854 671.075 654.659 671.5C654.473 671.926 654.171 672.484 653.746 673.193L649.482 680.638C648.684 682.029 647.922 683.226 647.213 684.2C646.504 685.184 645.795 686.017 645.094 686.691C644.394 687.373 643.685 687.94 642.967 688.384C642.24 688.827 641.469 689.181 640.645 689.465V689.5C641.425 689.864 642.107 690.271 642.692 690.732C643.268 691.184 643.782 691.76 644.226 692.46C644.669 693.161 645.05 694.02 645.378 695.039C645.706 696.068 646.007 697.326 646.318 698.833L647.957 707.5C648.073 707.935 648.135 708.325 648.17 708.679C648.214 709.007 648.223 709.344 648.223 709.636Z" fill="#EA6A00"/>
<path d="M688.696 710.159C688.643 710.372 688.546 710.558 688.368 710.717C688.191 710.877 687.934 711.019 687.579 711.125C687.225 711.232 686.764 711.311 686.214 711.373C685.647 711.418 684.956 711.453 684.14 711.453C683.307 711.453 682.624 711.418 682.093 711.373C681.561 711.311 681.153 711.232 680.86 711.125C680.577 711.019 680.373 710.877 680.275 710.717C680.178 710.558 680.151 710.372 680.196 710.159L683.786 692.186C683.892 691.539 684.025 690.865 684.185 690.147C684.326 689.438 684.495 688.703 684.663 687.967C684.84 687.223 685.018 686.478 685.195 685.742C685.381 684.998 685.558 684.298 685.762 683.651H685.718C684.752 684.945 683.741 686.239 682.686 687.559C681.632 688.88 680.595 690.121 679.575 691.317L662.964 710.186C662.742 710.443 662.521 710.664 662.281 710.815C662.042 710.974 661.758 711.107 661.421 711.205C661.085 711.302 660.695 711.364 660.234 711.4C659.764 711.435 659.188 711.453 658.505 711.453C657.672 711.453 656.989 711.426 656.466 711.382C655.943 711.338 655.553 711.258 655.252 711.152C654.968 711.045 654.773 710.895 654.694 710.717C654.605 710.531 654.596 710.31 654.658 710.026L662.583 670.543C662.609 670.33 662.707 670.135 662.893 669.985C663.079 669.825 663.345 669.683 663.7 669.577C664.054 669.471 664.506 669.391 665.065 669.329C665.614 669.284 666.297 669.249 667.112 669.249C667.928 669.249 668.601 669.284 669.133 669.329C669.665 669.391 670.073 669.471 670.374 669.577C670.667 669.683 670.879 669.825 670.986 669.985C671.092 670.135 671.119 670.33 671.083 670.543L667.201 690.067C667.095 690.59 666.97 691.158 666.829 691.778C666.687 692.398 666.536 693.028 666.394 693.675C666.244 694.304 666.084 694.942 665.916 695.571C665.756 696.2 665.596 696.794 665.419 697.335H665.481C665.871 696.776 666.297 696.192 666.758 695.571C667.219 694.96 667.706 694.339 668.194 693.719C668.69 693.098 669.186 692.487 669.683 691.911C670.179 691.326 670.64 690.776 671.075 690.262L688.102 670.711C688.36 670.437 688.617 670.188 688.865 670.002C689.113 669.807 689.405 669.657 689.751 669.55C690.097 669.435 690.496 669.364 690.966 669.32C691.427 669.276 691.985 669.249 692.659 669.249C693.492 669.249 694.183 669.284 694.706 669.329C695.238 669.391 695.646 669.471 695.929 669.577C696.222 669.683 696.408 669.825 696.515 669.985C696.612 670.135 696.639 670.33 696.585 670.543L688.696 710.159Z" fill="#EA6A00"/>
<path d="M721.707 689.704L728.142 707.961C728.372 708.732 728.514 709.353 728.541 709.814C728.576 710.274 728.443 710.629 728.16 710.877C727.867 711.125 727.38 711.285 726.679 711.347C725.988 711.418 725.031 711.453 723.799 711.453C722.912 711.453 722.212 711.427 721.707 711.382C721.184 711.338 720.785 711.276 720.492 711.17C720.209 711.072 719.996 710.948 719.881 710.771C719.765 710.593 719.659 710.372 719.57 710.115L714.5 694.933L703.766 710.115C703.571 710.372 703.367 710.593 703.163 710.771C702.959 710.948 702.675 711.072 702.285 711.17C701.913 711.267 701.408 711.338 700.796 711.382C700.185 711.427 699.387 711.453 698.421 711.453C697.277 711.453 696.382 711.418 695.744 711.347C695.088 711.285 694.68 711.134 694.485 710.895C694.281 710.664 694.29 710.319 694.503 709.867C694.707 709.406 695.07 708.812 695.611 708.059L709.412 689.642L703.571 672.635C703.331 671.881 703.189 671.27 703.163 670.827C703.136 670.375 703.26 670.029 703.553 669.799C703.845 669.559 704.324 669.409 705.024 669.338C705.716 669.276 706.664 669.24 707.879 669.24C708.8 669.24 709.527 669.258 710.05 669.311C710.582 669.347 710.999 669.426 711.291 669.542C711.602 669.648 711.814 669.799 711.947 669.994C712.071 670.189 712.187 670.437 712.275 670.738L716.707 684.378L726.467 670.578C726.644 670.33 726.821 670.109 727.025 669.94C727.229 669.763 727.513 669.639 727.849 669.542C728.195 669.435 728.656 669.373 729.223 669.329C729.791 669.285 730.553 669.258 731.501 669.258C732.663 669.258 733.576 669.293 734.249 669.364C734.923 669.426 735.357 669.577 735.561 669.816C735.765 670.047 735.765 670.392 735.579 670.844C735.393 671.305 735.021 671.899 734.489 672.652L721.707 689.704Z" fill="#EA6A00"/>
<path d="M490.53 757.556C490.637 758.336 490.69 758.947 490.681 759.399C490.672 759.851 490.522 760.188 490.229 760.419C489.928 760.64 489.458 760.782 488.784 760.835C488.119 760.888 487.198 760.915 486.036 760.915C485.221 760.915 484.547 760.906 484.033 760.871C483.51 760.835 483.12 760.782 482.845 760.693C482.553 760.605 482.367 760.472 482.26 760.295C482.154 760.117 482.083 759.896 482.065 759.586L480.931 751.184H465.223L460.898 759.391C460.747 759.692 460.57 759.94 460.384 760.153C460.18 760.357 459.905 760.516 459.541 760.623C459.178 760.729 458.682 760.809 458.079 760.844C457.467 760.897 456.696 760.915 455.757 760.915C454.764 760.915 453.993 760.888 453.452 760.818C452.902 760.747 452.539 760.605 452.353 760.348C452.158 760.1 452.14 759.745 452.282 759.302C452.415 758.85 452.69 758.247 453.106 757.485L473.414 720.386C473.627 720.023 473.848 719.73 474.052 719.5C474.265 719.269 474.575 719.101 474.965 718.986C475.373 718.87 475.905 718.791 476.587 718.764C477.261 718.729 478.147 718.711 479.255 718.711C480.523 718.711 481.533 718.729 482.278 718.764C483.023 718.791 483.599 718.87 484.006 718.986C484.414 719.101 484.689 719.278 484.813 719.517C484.946 719.757 485.035 720.085 485.07 720.483L490.53 757.556ZM477.828 726.891H477.793L468.45 744.67H480.221L477.828 726.891Z" fill="#EA6A00"/>
<path d="M527.379 720.325C527.379 720.503 527.361 720.751 527.334 721.087C527.29 721.424 527.246 721.788 527.175 722.186C527.095 722.585 526.998 723.011 526.882 723.454C526.758 723.897 526.625 724.296 526.466 724.668C526.306 725.031 526.111 725.324 525.907 725.554C525.686 725.776 525.438 725.882 525.154 725.882H511.282L504.554 759.631C504.509 759.844 504.412 760.03 504.235 760.19C504.057 760.349 503.8 760.482 503.428 760.597C503.073 760.704 502.621 760.783 502.063 760.837C501.504 760.89 500.813 760.916 499.989 760.916C499.155 760.916 498.464 760.89 497.941 760.837C497.409 760.783 496.993 760.704 496.7 760.597C496.399 760.482 496.195 760.349 496.088 760.19C495.982 760.03 495.964 759.844 496.018 759.631L503.623 721.593C503.8 720.68 504.164 720.015 504.713 719.572C505.272 719.129 505.937 718.907 506.681 718.907H526.563C526.891 718.907 527.104 719.049 527.219 719.315C527.326 719.581 527.379 719.926 527.379 720.325Z" fill="#EA6A00"/>
<path d="M556.976 720.128C556.976 720.261 556.959 720.483 556.932 720.811C556.905 721.139 556.852 721.493 556.781 721.892C556.71 722.3 556.639 722.707 556.524 723.133C556.418 723.567 556.276 723.966 556.125 724.32C555.966 724.675 555.771 724.967 555.54 725.207C555.319 725.437 555.07 725.561 554.813 725.561H539.877L537.812 735.78H550.479C550.78 735.78 551.002 735.886 551.126 736.099C551.25 736.321 551.321 736.613 551.321 737.012C551.321 737.154 551.303 737.393 551.277 737.703C551.241 738.013 551.197 738.368 551.126 738.767C551.055 739.165 550.975 739.573 550.869 739.972C550.763 740.388 550.621 740.761 550.461 741.106C550.31 741.452 550.107 741.727 549.903 741.948C549.69 742.161 549.451 742.276 549.194 742.276H536.562L534.16 754.064H549.291C549.548 754.064 549.743 754.179 549.876 754.4C550 754.631 550.071 754.959 550.071 755.384C550.071 755.535 550.062 755.774 550.036 756.102C550.009 756.421 549.965 756.776 549.885 757.183C549.805 757.582 549.717 757.99 549.61 758.397C549.504 758.796 549.362 759.186 549.202 759.541C549.043 759.895 548.848 760.179 548.644 760.392C548.422 760.613 548.183 760.719 547.891 760.719H526.883C526.537 760.719 526.218 760.666 525.943 760.569C525.668 760.471 525.429 760.312 525.252 760.09C525.065 759.86 524.95 759.585 524.879 759.248C524.808 758.92 524.817 758.513 524.906 758.043L532.21 721.582C532.405 720.634 532.795 719.942 533.371 719.526C533.956 719.1 534.603 718.896 535.312 718.896H556.134C556.701 718.905 556.976 719.313 556.976 720.128Z" fill="#EA6A00"/>
<path d="M589.534 759.586C589.481 759.807 589.383 760.002 589.206 760.171C589.029 760.339 588.772 760.481 588.435 760.596C588.089 760.702 587.628 760.782 587.07 760.835C586.511 760.888 585.82 760.915 585.005 760.915C584.18 760.915 583.507 760.888 582.957 760.835C582.416 760.782 582.008 760.702 581.716 760.596C581.432 760.481 581.228 760.348 581.113 760.171C581.007 759.993 580.989 759.807 581.051 759.586L584.411 742.658H568.766L565.406 759.586C565.371 759.807 565.255 760.002 565.078 760.171C564.901 760.348 564.653 760.481 564.28 760.596C563.926 760.702 563.474 760.782 562.924 760.835C562.374 760.888 561.692 760.915 560.876 760.915C560.034 760.915 559.343 760.888 558.82 760.835C558.288 760.782 557.88 760.702 557.579 760.596C557.278 760.481 557.083 760.348 556.967 760.171C556.861 759.993 556.843 759.807 556.905 759.586L564.83 720.031C564.848 719.819 564.945 719.615 565.113 719.447C565.291 719.269 565.548 719.136 565.894 719.039C566.239 718.924 566.691 718.853 567.25 718.791C567.808 718.738 568.5 718.711 569.324 718.711C570.139 718.711 570.822 718.738 571.363 718.791C571.903 718.853 572.32 718.924 572.621 719.039C572.914 719.145 573.127 719.278 573.224 719.447C573.322 719.624 573.348 719.819 573.304 720.031L570.237 735.417H585.909L588.94 720.031C588.993 719.819 589.091 719.615 589.268 719.447C589.445 719.269 589.703 719.136 590.048 719.039C590.394 718.924 590.846 718.853 591.404 718.791C591.972 718.738 592.663 718.711 593.479 718.711C594.294 718.711 594.977 718.738 595.517 718.791C596.058 718.853 596.475 718.924 596.776 719.039C597.077 719.145 597.281 719.278 597.379 719.447C597.476 719.624 597.512 719.819 597.459 720.031L589.534 759.586Z" fill="#EA6A00"/>
<path d="M634.236 720.262C634.236 720.404 634.209 720.652 634.183 720.989C634.156 721.326 634.094 721.698 634.023 722.097C633.943 722.513 633.846 722.939 633.739 723.382C633.633 723.825 633.482 724.233 633.314 724.596C633.154 724.959 632.959 725.261 632.738 725.5C632.507 725.739 632.259 725.855 632.002 725.855H621.498L614.779 759.559C614.708 759.772 614.584 759.976 614.425 760.135C614.247 760.313 613.99 760.454 613.636 760.561C613.281 760.667 612.82 760.756 612.271 760.818C611.721 760.889 611.03 760.915 610.179 760.915C609.363 760.915 608.681 760.889 608.14 760.818C607.599 760.747 607.183 760.667 606.899 760.561C606.606 760.454 606.42 760.313 606.323 760.135C606.216 759.976 606.19 759.772 606.243 759.559L612.962 725.855H602.555C602.227 725.855 602.015 725.739 601.891 725.5C601.775 725.261 601.713 724.942 601.713 724.534C601.713 724.357 601.74 724.109 601.767 723.772C601.793 723.444 601.846 723.063 601.926 722.646C602.006 722.221 602.103 721.795 602.219 721.352C602.334 720.909 602.485 720.501 602.653 720.138C602.83 719.775 603.016 719.482 603.238 719.252C603.451 719.03 603.69 718.915 603.947 718.915H633.42C633.677 718.915 633.89 719.039 634.023 719.27C634.165 719.5 634.236 719.837 634.236 720.262Z" fill="#EA6A00"/>
<path d="M665.296 722.947C665.296 723.55 665.198 724.357 664.994 725.376C664.781 726.386 664.524 727.193 664.223 727.813C663.904 728.424 663.567 728.735 663.168 728.735C662.893 728.735 662.557 728.557 662.167 728.203C661.777 727.848 661.262 727.458 660.642 727.051C660.021 726.643 659.224 726.262 658.249 725.907C657.282 725.553 656.068 725.376 654.632 725.376C653.037 725.376 651.574 725.686 650.271 726.324C648.959 726.971 647.771 727.804 646.743 728.85C645.706 729.896 644.793 731.101 644.022 732.457C643.242 733.822 642.603 735.231 642.098 736.693C641.593 738.165 641.212 739.618 640.964 741.072C640.715 742.525 640.591 743.881 640.591 745.122C640.591 746.628 640.777 747.958 641.15 749.092C641.522 750.236 642.063 751.184 642.79 751.937C643.499 752.69 644.376 753.258 645.405 753.639C646.442 754.02 647.603 754.197 648.897 754.197C650.422 754.197 651.734 754.038 652.824 753.71C653.905 753.391 654.836 753.036 655.598 752.646C656.361 752.256 656.999 751.902 657.504 751.583C658 751.264 658.47 751.104 658.869 751.104C659.144 751.104 659.348 751.21 659.436 751.405C659.525 751.609 659.578 751.902 659.578 752.265C659.578 752.416 659.561 752.646 659.516 752.948C659.472 753.24 659.41 753.586 659.357 753.958C659.286 754.339 659.215 754.747 659.126 755.19C659.038 755.633 658.94 756.041 658.843 756.422C658.736 756.794 658.612 757.14 658.47 757.459C658.328 757.778 658.142 758.052 657.903 758.283C657.672 758.522 657.203 758.832 656.52 759.205C655.829 759.577 654.987 759.931 653.994 760.259C653.01 760.578 651.884 760.862 650.634 761.075C649.385 761.305 648.046 761.42 646.619 761.42C644.279 761.42 642.151 761.101 640.263 760.481C638.384 759.86 636.771 758.903 635.459 757.636C634.156 756.369 633.137 754.764 632.427 752.859C631.718 750.936 631.364 748.702 631.364 746.132C631.364 744.138 631.568 742.046 631.975 739.875C632.392 737.713 633.004 735.594 633.837 733.521C634.661 731.456 635.707 729.488 636.992 727.636C638.26 725.783 639.758 724.162 641.495 722.77C643.233 721.379 645.201 720.28 647.408 719.464C649.615 718.64 652.07 718.232 654.765 718.232C656.272 718.232 657.699 718.383 659.046 718.702C660.403 719.012 661.573 719.429 662.565 719.943C663.576 720.466 664.276 720.927 664.666 721.352C665.101 721.769 665.296 722.3 665.296 722.947Z" fill="#EA6A00"/>
<path d="M699.954 720.262C699.954 720.404 699.928 720.652 699.901 720.989C699.874 721.326 699.812 721.698 699.742 722.097C699.662 722.513 699.564 722.939 699.458 723.382C699.343 723.825 699.201 724.233 699.032 724.596C698.873 724.959 698.678 725.261 698.456 725.5C698.226 725.739 697.978 725.855 697.72 725.855H687.217L680.498 759.559C680.427 759.772 680.311 759.976 680.143 760.135C679.966 760.313 679.709 760.454 679.354 760.561C678.999 760.667 678.547 760.756 677.989 760.818C677.439 760.88 676.748 760.915 675.906 760.915C675.082 760.915 674.408 760.889 673.858 760.818C673.318 760.747 672.91 760.667 672.617 760.561C672.325 760.454 672.139 760.313 672.041 760.135C671.944 759.976 671.908 759.772 671.961 759.559L678.68 725.855H668.274C667.946 725.855 667.733 725.739 667.618 725.5C667.494 725.261 667.441 724.942 667.441 724.534C667.441 724.357 667.458 724.109 667.485 723.772C667.512 723.444 667.565 723.063 667.645 722.646C667.724 722.221 667.822 721.795 667.937 721.352C668.061 720.909 668.203 720.501 668.371 720.138C668.549 719.775 668.735 719.482 668.956 719.252C669.169 719.03 669.409 718.915 669.666 718.915H699.139C699.396 718.915 699.609 719.039 699.742 719.27C699.883 719.5 699.954 719.837 699.954 720.262Z" fill="#EA6A00"/>
<path d="M731.174 727.44C731.174 728.716 730.997 729.913 730.642 731.047C730.287 732.182 729.764 733.219 729.082 734.149C728.408 735.089 727.584 735.913 726.635 736.64C725.678 737.357 724.606 737.934 723.418 738.359C724.366 738.536 725.244 738.829 726.033 739.263C726.83 739.697 727.522 740.256 728.08 740.911C728.656 741.585 729.1 742.374 729.401 743.287C729.72 744.199 729.871 745.227 729.871 746.371C729.871 747.408 729.738 748.48 729.454 749.588C729.171 750.687 728.727 751.768 728.133 752.832C727.531 753.886 726.742 754.897 725.776 755.854C724.809 756.811 723.639 757.653 722.265 758.371C720.891 759.098 719.322 759.665 717.532 760.09C715.75 760.516 713.667 760.719 711.292 760.719H699.697C698.811 760.719 698.164 760.507 697.774 760.081C697.375 759.647 697.269 758.965 697.464 758.043L704.768 721.582C704.945 720.634 705.326 719.942 705.911 719.526C706.505 719.1 707.196 718.896 707.968 718.896H718.019C720.235 718.896 722.159 719.074 723.772 719.419C725.386 719.765 726.751 720.288 727.841 720.988C728.94 721.688 729.773 722.574 730.332 723.638C730.89 724.702 731.174 725.969 731.174 727.44ZM720.998 746.796C720.998 745.414 720.484 744.332 719.464 743.535C718.445 742.737 716.805 742.329 714.571 742.329H708.907L706.549 754.223H712.559C714.084 754.223 715.378 754.01 716.424 753.576C717.47 753.142 718.33 752.584 719.003 751.892C719.686 751.201 720.182 750.412 720.51 749.517C720.838 748.631 720.998 747.718 720.998 746.796ZM722.416 729.018C722.416 728.415 722.301 727.883 722.088 727.44C721.875 726.988 721.547 726.607 721.122 726.279C720.688 725.951 720.147 725.703 719.482 725.543C718.826 725.366 718.002 725.286 716.982 725.286H712.364L710.166 736.143H714.944C716.344 736.143 717.505 735.922 718.427 735.479C719.358 735.035 720.12 734.468 720.705 733.768C721.299 733.068 721.734 732.288 721.999 731.455C722.274 730.604 722.416 729.798 722.416 729.018Z" fill="#EA6A00"/>
<path d="M335.754 408.783C335.754 408.783 644.349 193.154 954.744 205.792C1265.16 218.422 1427.08 337.509 1553.2 373.598C1679.31 409.687 1836.32 420.517 1836.32 420.517C1836.32 420.517 1692.86 441.274 1510.59 388.036C1328.32 334.806 1156.87 246.392 860.013 244.584C607.351 240.977 335.754 408.783 335.754 408.783Z" fill="#EA6A00"/>
<path d="M1402.08 107C1402.08 107 1422.39 107.222 1432.09 117.148C1441.78 127.074 1448.55 140.377 1448.55 140.377C1448.55 140.377 1474.49 125.709 1488.26 136.991C1502.01 148.265 1502.47 154.584 1502.47 154.584C1502.47 154.584 1487.57 151.429 1491.86 154.584C1496.15 157.739 1505.62 180.746 1488.71 205.331C1482.62 188.865 1467.05 180.525 1467.05 180.525C1467.05 180.525 1470.88 204.879 1466.82 216.383C1459.83 215.701 1460.05 208.717 1460.05 208.717C1460.05 208.717 1461.41 216.835 1454.87 227.665C1446.07 218.2 1435.7 193.836 1435.7 193.836C1435.7 193.836 1412.25 199.021 1408.63 213.68C1404.34 203.984 1403.66 200.608 1403.66 200.608C1403.66 200.608 1395.09 212.785 1385.61 219.104C1382.68 203.993 1393.28 177.378 1393.28 177.378C1393.28 177.378 1384.48 171.29 1377.94 174.002C1377.94 174.002 1382 152.572 1393.28 148.743C1404.55 144.906 1407.72 144.232 1407.72 144.232L1402.31 111.52L1402.08 107Z" fill="#EA6A00"/>
<path d="M1531.65 135.725C1531.65 135.725 1544.58 132.411 1557.81 139.04C1571.06 145.651 1575.86 152.564 1575.86 152.564L1574.35 126.712C1574.35 126.712 1593.91 128.511 1602.33 136.337C1610.74 144.163 1616.46 156.49 1616.46 156.49C1616.46 156.49 1628.5 152.883 1639.02 156.49C1629.99 163.102 1625.78 169.12 1625.78 169.12C1625.78 169.12 1648.95 170.325 1660.37 187.767C1671.8 205.209 1673.3 214.24 1673.3 214.24C1673.3 214.24 1656.76 207.025 1646.83 207.619C1636.9 208.222 1649.54 214.833 1643.51 231.079C1637.5 247.315 1611.34 263.853 1611.34 263.853L1600.81 211.829C1600.81 211.829 1571.63 244.311 1556.59 246.119C1562.01 207.921 1578.25 195.291 1578.25 195.291C1578.25 195.291 1548.17 183.265 1528.92 190.488C1542.45 166.434 1558.09 162.517 1558.09 162.517C1558.09 162.517 1542.18 137.223 1531.65 135.725Z" fill="#EA6A00"/>
</svg>
